<svg width="74" height="86" viewBox="0 0 74 86" fill="none" xmlns="http://www.w3.org/2000/svg">
<path d="M56.31 14.7488L5.10295 75.3601L2 84.2297L9.5118 80.5659L60.8449 20.1034L56.31 14.7488ZM66.5559 2.65316L64.3374 5.27047L68.8723 10.6251L71.0909 8.00554C71.673 7.31769 72 6.38507 72 5.41267C72 4.44026 71.673 3.50765 71.0909 2.8198L70.9498 2.65316C70.6613 2.31249 70.3188 2.04225 69.9418 1.85788C69.5649 1.67351 69.1609 1.57861 68.7528 1.57861C68.3448 1.57861 67.9408 1.67351 67.5639 1.85788C67.1869 2.04225 66.8444 2.31249 66.5559 2.65316Z" stroke="#D9D9D9" stroke-width="3" stroke-linecap="round" stroke-linejoin="round"/>
</svg>
