<?xml version="1.0" standalone="no"?>
<svg xmlns:xlink="http://www.w3.org/1999/xlink" id="wave" style="transform:rotate(0deg); transition: 0.3s" viewBox="0 0 1440 490" version="1.1" xmlns="http://www.w3.org/2000/svg"><defs><linearGradient id="sw-gradient-0" x1="0" x2="0" y1="1" y2="0"><stop stop-color="rgba(175, 61, 89, 1)" offset="0%"/><stop stop-color="rgba(154, 54, 78, 1)" offset="100%"/></linearGradient></defs><path style="transform:translate(0, 0px); opacity:1" fill="url(#sw-gradient-0)" d="M0,0L40,0C80,0,160,0,240,49C320,98,400,196,480,236.8C560,278,640,261,720,277.7C800,294,880,343,960,367.5C1040,392,1120,392,1200,375.7C1280,359,1360,327,1440,334.8C1520,343,1600,392,1680,400.2C1760,408,1840,376,1920,302.2C2000,229,2080,114,2160,89.8C2240,65,2320,131,2400,138.8C2480,147,2560,98,2640,130.7C2720,163,2800,278,2880,302.2C2960,327,3040,261,3120,236.8C3200,212,3280,229,3360,269.5C3440,310,3520,376,3600,359.3C3680,343,3760,245,3840,179.7C3920,114,4000,82,4080,114.3C4160,147,4240,245,4320,302.2C4400,359,4480,376,4560,351.2C4640,327,4720,261,4800,228.7C4880,196,4960,196,5040,179.7C5120,163,5200,131,5280,147C5360,163,5440,229,5520,269.5C5600,310,5680,327,5720,334.8L5760,343L5760,490L5720,490C5680,490,5600,490,5520,490C5440,490,5360,490,5280,490C5200,490,5120,490,5040,490C4960,490,4880,490,4800,490C4720,490,4640,490,4560,490C4480,490,4400,490,4320,490C4240,490,4160,490,4080,490C4000,490,3920,490,3840,490C3760,490,3680,490,3600,490C3520,490,3440,490,3360,490C3280,490,3200,490,3120,490C3040,490,2960,490,2880,490C2800,490,2720,490,2640,490C2560,490,2480,490,2400,490C2320,490,2240,490,2160,490C2080,490,2000,490,1920,490C1840,490,1760,490,1680,490C1600,490,1520,490,1440,490C1360,490,1280,490,1200,490C1120,490,1040,490,960,490C880,490,800,490,720,490C640,490,560,490,480,490C400,490,320,490,240,490C160,490,80,490,40,490L0,490Z"/><defs><linearGradient id="sw-gradient-1" x1="0" x2="0" y1="1" y2="0"><stop stop-color="rgba(225, 122, 71, 1)" offset="0%"/><stop stop-color="rgba(198, 107, 62, 1)" offset="100%"/></linearGradient></defs><path style="transform:translate(0, 50px); opacity:0.9" fill="url(#sw-gradient-1)" d="M0,343L40,294C80,245,160,147,240,147C320,147,400,245,480,269.5C560,294,640,245,720,196C800,147,880,98,960,89.8C1040,82,1120,114,1200,130.7C1280,147,1360,147,1440,130.7C1520,114,1600,82,1680,57.2C1760,33,1840,16,1920,49C2000,82,2080,163,2160,220.5C2240,278,2320,310,2400,326.7C2480,343,2560,343,2640,318.5C2720,294,2800,245,2880,236.8C2960,229,3040,261,3120,253.2C3200,245,3280,196,3360,204.2C3440,212,3520,278,3600,294C3680,310,3760,278,3840,228.7C3920,180,4000,114,4080,122.5C4160,131,4240,212,4320,204.2C4400,196,4480,98,4560,57.2C4640,16,4720,33,4800,65.3C4880,98,4960,147,5040,204.2C5120,261,5200,327,5280,302.2C5360,278,5440,163,5520,155.2C5600,147,5680,245,5720,294L5760,343L5760,490L5720,490C5680,490,5600,490,5520,490C5440,490,5360,490,5280,490C5200,490,5120,490,5040,490C4960,490,4880,490,4800,490C4720,490,4640,490,4560,490C4480,490,4400,490,4320,490C4240,490,4160,490,4080,490C4000,490,3920,490,3840,490C3760,490,3680,490,3600,490C3520,490,3440,490,3360,490C3280,490,3200,490,3120,490C3040,490,2960,490,2880,490C2800,490,2720,490,2640,490C2560,490,2480,490,2400,490C2320,490,2240,490,2160,490C2080,490,2000,490,1920,490C1840,490,1760,490,1680,490C1600,490,1520,490,1440,490C1360,490,1280,490,1200,490C1120,490,1040,490,960,490C880,490,800,490,720,490C640,490,560,490,480,490C400,490,320,490,240,490C160,490,80,490,40,490L0,490Z"/><defs><linearGradient id="sw-gradient-2" x1="0" x2="0" y1="1" y2="0"><stop stop-color="rgba(239, 201, 88, 1)" offset="0%"/><stop stop-color="rgba(210, 177, 77, 1)" offset="100%"/></linearGradient></defs><path style="transform:translate(0, 100px); opacity:0.8" fill="url(#sw-gradient-2)" d="M0,147L40,179.7C80,212,160,278,240,310.3C320,343,400,343,480,318.5C560,294,640,245,720,187.8C800,131,880,65,960,89.8C1040,114,1120,229,1200,269.5C1280,310,1360,278,1440,269.5C1520,261,1600,278,1680,294C1760,310,1840,327,1920,285.8C2000,245,2080,147,2160,89.8C2240,33,2320,16,2400,57.2C2480,98,2560,196,2640,236.8C2720,278,2800,261,2880,285.8C2960,310,3040,376,3120,408.3C3200,441,3280,441,3360,375.7C3440,310,3520,180,3600,171.5C3680,163,3760,278,3840,285.8C3920,294,4000,196,4080,179.7C4160,163,4240,229,4320,228.7C4400,229,4480,163,4560,187.8C4640,212,4720,327,4800,334.8C4880,343,4960,245,5040,245C5120,245,5200,343,5280,334.8C5360,327,5440,212,5520,196C5600,180,5680,261,5720,302.2L5760,343L5760,490L5720,490C5680,490,5600,490,5520,490C5440,490,5360,490,5280,490C5200,490,5120,490,5040,490C4960,490,4880,490,4800,490C4720,490,4640,490,4560,490C4480,490,4400,490,4320,490C4240,490,4160,490,4080,490C4000,490,3920,490,3840,490C3760,490,3680,490,3600,490C3520,490,3440,490,3360,490C3280,490,3200,490,3120,490C3040,490,2960,490,2880,490C2800,490,2720,490,2640,490C2560,490,2480,490,2400,490C2320,490,2240,490,2160,490C2080,490,2000,490,1920,490C1840,490,1760,490,1680,490C1600,490,1520,490,1440,490C1360,490,1280,490,1200,490C1120,490,1040,490,960,490C880,490,800,490,720,490C640,490,560,490,480,490C400,490,320,490,240,490C160,490,80,490,40,490L0,490Z"/><defs><linearGradient id="sw-gradient-3" x1="0" x2="0" y1="1" y2="0"><stop stop-color="rgba(74, 177, 157, 1)" offset="0%"/><stop stop-color="rgba(65, 156, 138, 1)" offset="100%"/></linearGradient></defs><path style="transform:translate(0, 150px); opacity:0.7" fill="url(#sw-gradient-3)" d="M0,196L40,171.5C80,147,160,98,240,81.7C320,65,400,82,480,147C560,212,640,327,720,367.5C800,408,880,376,960,351.2C1040,327,1120,310,1200,261.3C1280,212,1360,131,1440,98C1520,65,1600,82,1680,138.8C1760,196,1840,294,1920,294C2000,294,2080,196,2160,171.5C2240,147,2320,196,2400,228.7C2480,261,2560,278,2640,253.2C2720,229,2800,163,2880,179.7C2960,196,3040,294,3120,310.3C3200,327,3280,261,3360,196C3440,131,3520,65,3600,32.7C3680,0,3760,0,3840,73.5C3920,147,4000,294,4080,310.3C4160,327,4240,212,4320,212.3C4400,212,4480,327,4560,310.3C4640,294,4720,147,4800,98C4880,49,4960,98,5040,163.3C5120,229,5200,310,5280,302.2C5360,294,5440,196,5520,155.2C5600,114,5680,131,5720,138.8L5760,147L5760,490L5720,490C5680,490,5600,490,5520,490C5440,490,5360,490,5280,490C5200,490,5120,490,5040,490C4960,490,4880,490,4800,490C4720,490,4640,490,4560,490C4480,490,4400,490,4320,490C4240,490,4160,490,4080,490C4000,490,3920,490,3840,490C3760,490,3680,490,3600,490C3520,490,3440,490,3360,490C3280,490,3200,490,3120,490C3040,490,2960,490,2880,490C2800,490,2720,490,2640,490C2560,490,2480,490,2400,490C2320,490,2240,490,2160,490C2080,490,2000,490,1920,490C1840,490,1760,490,1680,490C1600,490,1520,490,1440,490C1360,490,1280,490,1200,490C1120,490,1040,490,960,490C880,490,800,490,720,490C640,490,560,490,480,490C400,490,320,490,240,490C160,490,80,490,40,490L0,490Z"/></svg>