<?xml version="1.0" standalone="no"?>
<svg xmlns:xlink="http://www.w3.org/1999/xlink" id="wave" style="transform:rotate(180deg); transition: 0.3s" viewBox="0 0 1440 490" version="1.1" xmlns="http://www.w3.org/2000/svg"><defs><linearGradient id="sw-gradient-0" x1="0" x2="0" y1="1" y2="0"><stop stop-color="rgba(175, 61, 89, 1)" offset="0%"/><stop stop-color="rgba(154, 54, 78, 1)" offset="100%"/></linearGradient></defs><path style="transform:translate(0, 0px); opacity:1" fill="url(#sw-gradient-0)" d="M0,392L48,343C96,294,192,196,288,171.5C384,147,480,196,576,245C672,294,768,343,864,343C960,343,1056,294,1152,285.8C1248,278,1344,310,1440,294C1536,278,1632,212,1728,155.2C1824,98,1920,49,2016,73.5C2112,98,2208,196,2304,253.2C2400,310,2496,327,2592,277.7C2688,229,2784,114,2880,81.7C2976,49,3072,98,3168,163.3C3264,229,3360,310,3456,285.8C3552,261,3648,131,3744,114.3C3840,98,3936,196,4032,228.7C4128,261,4224,229,4320,236.8C4416,245,4512,294,4608,261.3C4704,229,4800,114,4896,65.3C4992,16,5088,33,5184,89.8C5280,147,5376,245,5472,294C5568,343,5664,343,5760,343C5856,343,5952,343,6048,318.5C6144,294,6240,245,6336,228.7C6432,212,6528,229,6624,204.2C6720,180,6816,114,6864,81.7L6912,49L6912,490L6864,490C6816,490,6720,490,6624,490C6528,490,6432,490,6336,490C6240,490,6144,490,6048,490C5952,490,5856,490,5760,490C5664,490,5568,490,5472,490C5376,490,5280,490,5184,490C5088,490,4992,490,4896,490C4800,490,4704,490,4608,490C4512,490,4416,490,4320,490C4224,490,4128,490,4032,490C3936,490,3840,490,3744,490C3648,490,3552,490,3456,490C3360,490,3264,490,3168,490C3072,490,2976,490,2880,490C2784,490,2688,490,2592,490C2496,490,2400,490,2304,490C2208,490,2112,490,2016,490C1920,490,1824,490,1728,490C1632,490,1536,490,1440,490C1344,490,1248,490,1152,490C1056,490,960,490,864,490C768,490,672,490,576,490C480,490,384,490,288,490C192,490,96,490,48,490L0,490Z"/><defs><linearGradient id="sw-gradient-1" x1="0" x2="0" y1="1" y2="0"><stop stop-color="rgba(225, 122, 71, 1)" offset="0%"/><stop stop-color="rgba(198, 107, 62, 1)" offset="100%"/></linearGradient></defs><path style="transform:translate(0, 50px); opacity:0.9" fill="url(#sw-gradient-1)" d="M0,0L48,0C96,0,192,0,288,73.5C384,147,480,294,576,318.5C672,343,768,245,864,187.8C960,131,1056,114,1152,98C1248,82,1344,65,1440,65.3C1536,65,1632,82,1728,89.8C1824,98,1920,98,2016,106.2C2112,114,2208,131,2304,187.8C2400,245,2496,343,2592,334.8C2688,327,2784,212,2880,155.2C2976,98,3072,98,3168,114.3C3264,131,3360,163,3456,187.8C3552,212,3648,229,3744,220.5C3840,212,3936,180,4032,179.7C4128,180,4224,212,4320,187.8C4416,163,4512,82,4608,40.8C4704,0,4800,0,4896,0C4992,0,5088,0,5184,32.7C5280,65,5376,131,5472,147C5568,163,5664,131,5760,138.8C5856,147,5952,196,6048,212.3C6144,229,6240,212,6336,179.7C6432,147,6528,98,6624,122.5C6720,147,6816,245,6864,294L6912,343L6912,490L6864,490C6816,490,6720,490,6624,490C6528,490,6432,490,6336,490C6240,490,6144,490,6048,490C5952,490,5856,490,5760,490C5664,490,5568,490,5472,490C5376,490,5280,490,5184,490C5088,490,4992,490,4896,490C4800,490,4704,490,4608,490C4512,490,4416,490,4320,490C4224,490,4128,490,4032,490C3936,490,3840,490,3744,490C3648,490,3552,490,3456,490C3360,490,3264,490,3168,490C3072,490,2976,490,2880,490C2784,490,2688,490,2592,490C2496,490,2400,490,2304,490C2208,490,2112,490,2016,490C1920,490,1824,490,1728,490C1632,490,1536,490,1440,490C1344,490,1248,490,1152,490C1056,490,960,490,864,490C768,490,672,490,576,490C480,490,384,490,288,490C192,490,96,490,48,490L0,490Z"/><defs><linearGradient id="sw-gradient-2" x1="0" x2="0" y1="1" y2="0"><stop stop-color="rgba(239, 201, 88, 1)" offset="0%"/><stop stop-color="rgba(210, 177, 77, 1)" offset="100%"/></linearGradient></defs><path style="transform:translate(0, 100px); opacity:0.8" fill="url(#sw-gradient-2)" d="M0,49L48,81.7C96,114,192,180,288,245C384,310,480,376,576,400.2C672,425,768,408,864,359.3C960,310,1056,229,1152,212.3C1248,196,1344,245,1440,245C1536,245,1632,196,1728,163.3C1824,131,1920,114,2016,89.8C2112,65,2208,33,2304,57.2C2400,82,2496,163,2592,228.7C2688,294,2784,343,2880,351.2C2976,359,3072,327,3168,334.8C3264,343,3360,392,3456,367.5C3552,343,3648,245,3744,245C3840,245,3936,343,4032,343C4128,343,4224,245,4320,204.2C4416,163,4512,180,4608,196C4704,212,4800,229,4896,245C4992,261,5088,278,5184,277.7C5280,278,5376,261,5472,261.3C5568,261,5664,278,5760,269.5C5856,261,5952,229,6048,236.8C6144,245,6240,294,6336,294C6432,294,6528,245,6624,212.3C6720,180,6816,163,6864,155.2L6912,147L6912,490L6864,490C6816,490,6720,490,6624,490C6528,490,6432,490,6336,490C6240,490,6144,490,6048,490C5952,490,5856,490,5760,490C5664,490,5568,490,5472,490C5376,490,5280,490,5184,490C5088,490,4992,490,4896,490C4800,490,4704,490,4608,490C4512,490,4416,490,4320,490C4224,490,4128,490,4032,490C3936,490,3840,490,3744,490C3648,490,3552,490,3456,490C3360,490,3264,490,3168,490C3072,490,2976,490,2880,490C2784,490,2688,490,2592,490C2496,490,2400,490,2304,490C2208,490,2112,490,2016,490C1920,490,1824,490,1728,490C1632,490,1536,490,1440,490C1344,490,1248,490,1152,490C1056,490,960,490,864,490C768,490,672,490,576,490C480,490,384,490,288,490C192,490,96,490,48,490L0,490Z"/><defs><linearGradient id="sw-gradient-3" x1="0" x2="0" y1="1" y2="0"><stop stop-color="rgba(74, 177, 157, 1)" offset="0%"/><stop stop-color="rgba(65, 156, 138, 1)" offset="100%"/></linearGradient></defs><path style="transform:translate(0, 150px); opacity:0.7" fill="url(#sw-gradient-3)" d="M0,294L48,294C96,294,192,294,288,302.2C384,310,480,327,576,285.8C672,245,768,147,864,130.7C960,114,1056,180,1152,245C1248,310,1344,376,1440,343C1536,310,1632,180,1728,130.7C1824,82,1920,114,2016,147C2112,180,2208,212,2304,196C2400,180,2496,114,2592,114.3C2688,114,2784,180,2880,245C2976,310,3072,376,3168,375.7C3264,376,3360,310,3456,269.5C3552,229,3648,212,3744,196C3840,180,3936,163,4032,171.5C4128,180,4224,212,4320,228.7C4416,245,4512,245,4608,220.5C4704,196,4800,147,4896,155.2C4992,163,5088,229,5184,236.8C5280,245,5376,196,5472,163.3C5568,131,5664,114,5760,163.3C5856,212,5952,327,6048,318.5C6144,310,6240,180,6336,179.7C6432,180,6528,310,6624,343C6720,376,6816,310,6864,277.7L6912,245L6912,490L6864,490C6816,490,6720,490,6624,490C6528,490,6432,490,6336,490C6240,490,6144,490,6048,490C5952,490,5856,490,5760,490C5664,490,5568,490,5472,490C5376,490,5280,490,5184,490C5088,490,4992,490,4896,490C4800,490,4704,490,4608,490C4512,490,4416,490,4320,490C4224,490,4128,490,4032,490C3936,490,3840,490,3744,490C3648,490,3552,490,3456,490C3360,490,3264,490,3168,490C3072,490,2976,490,2880,490C2784,490,2688,490,2592,490C2496,490,2400,490,2304,490C2208,490,2112,490,2016,490C1920,490,1824,490,1728,490C1632,490,1536,490,1440,490C1344,490,1248,490,1152,490C1056,490,960,490,864,490C768,490,672,490,576,490C480,490,384,490,288,490C192,490,96,490,48,490L0,490Z"/></svg>