<svg width="1080" height="1920" viewBox="0 0 1080 1920" fill="none" xmlns="http://www.w3.org/2000/svg">
<g clip-path="url(#clip0_609_43)">
<path d="M0 1475H30C60 1475 120 1475 180 1519.5C240 1564 300 1653 360 1690.05C420 1727.47 480 1712.03 540 1727.2C600 1742 660 1786.5 720 1808.75C780 1831 840 1831 900 1816.2C960 1801.03 1020 1771.97 1080 1779.05C1140 1786.5 1200 1831 1260 1838.45C1320 1845.53 1380 1816.47 1440 1749.45C1500 1682.97 1560 1578.53 1620 1556.55C1680 1534.03 1740 1593.97 1800 1601.05C1860 1608.5 1920 1564 1980 1593.7C2040 1623.03 2100 1727.47 2160 1749.45C2220 1771.97 2280 1712.03 2340 1690.05C2400 1667.53 2460 1682.97 2520 1719.75C2580 1756.53 2640 1816.47 2700 1801.3C2760 1786.5 2820 1697.5 2880 1638.2C2940 1578.53 3000 1549.47 3060 1578.8C3120 1608.5 3180 1697.5 3240 1749.45C3300 1801.03 3360 1816.47 3420 1793.95C3480 1771.97 3540 1712.03 3600 1682.7C3660 1653 3720 1653 3780 1638.2C3840 1623.03 3900 1593.97 3960 1608.5C4020 1623.03 4080 1682.97 4140 1719.75C4200 1756.53 4260 1771.97 4290 1779.05L4320 1786.5V1920H4290C4260 1920 4200 1920 4140 1920C4080 1920 4020 1920 3960 1920C3900 1920 3840 1920 3780 1920C3720 1920 3660 1920 3600 1920C3540 1920 3480 1920 3420 1920C3360 1920 3300 1920 3240 1920C3180 1920 3120 1920 3060 1920C3000 1920 2940 1920 2880 1920C2820 1920 2760 1920 2700 1920C2640 1920 2580 1920 2520 1920C2460 1920 2400 1920 2340 1920C2280 1920 2220 1920 2160 1920C2100 1920 2040 1920 1980 1920C1920 1920 1860 1920 1800 1920C1740 1920 1680 1920 1620 1920C1560 1920 1500 1920 1440 1920C1380 1920 1320 1920 1260 1920C1200 1920 1140 1920 1080 1920C1020 1920 960 1920 900 1920C840 1920 780 1920 720 1920C660 1920 600 1920 540 1920C480 1920 420 1920 360 1920C300 1920 240 1920 180 1920C120 1920 60 1920 30 1920H0V1475Z" fill="url(#paint0_linear_609_43)"/>
<path opacity="0.9" d="M0 1786.5L30 1742C60 1697.5 120 1608.5 180 1608.5C240 1608.5 300 1697.5 360 1719.75C420 1742 480 1697.5 540 1653C600 1608.5 660 1564 720 1556.55C780 1549.47 840 1578.53 900 1593.7C960 1608.5 1020 1608.5 1080 1593.7C1140 1578.53 1200 1549.47 1260 1526.95C1320 1504.97 1380 1489.53 1440 1519.5C1500 1549.47 1560 1623.03 1620 1675.25C1680 1727.47 1740 1756.53 1800 1771.7C1860 1786.5 1920 1786.5 1980 1764.25C2040 1742 2100 1697.5 2160 1690.05C2220 1682.97 2280 1712.03 2340 1704.95C2400 1697.5 2460 1653 2520 1660.45C2580 1667.53 2640 1727.47 2700 1742C2760 1756.53 2820 1727.47 2880 1682.7C2940 1638.47 3000 1578.53 3060 1586.25C3120 1593.97 3180 1667.53 3240 1660.45C3300 1653 3360 1564 3420 1526.95C3480 1489.53 3540 1504.97 3600 1534.3C3660 1564 3720 1608.5 3780 1660.45C3840 1712.03 3900 1771.97 3960 1749.45C4020 1727.47 4080 1623.03 4140 1615.95C4200 1608.5 4260 1697.5 4290 1742L4320 1786.5V1920H4290C4260 1920 4200 1920 4140 1920C4080 1920 4020 1920 3960 1920C3900 1920 3840 1920 3780 1920C3720 1920 3660 1920 3600 1920C3540 1920 3480 1920 3420 1920C3360 1920 3300 1920 3240 1920C3180 1920 3120 1920 3060 1920C3000 1920 2940 1920 2880 1920C2820 1920 2760 1920 2700 1920C2640 1920 2580 1920 2520 1920C2460 1920 2400 1920 2340 1920C2280 1920 2220 1920 2160 1920C2100 1920 2040 1920 1980 1920C1920 1920 1860 1920 1800 1920C1740 1920 1680 1920 1620 1920C1560 1920 1500 1920 1440 1920C1380 1920 1320 1920 1260 1920C1200 1920 1140 1920 1080 1920C1020 1920 960 1920 900 1920C840 1920 780 1920 720 1920C660 1920 600 1920 540 1920C480 1920 420 1920 360 1920C300 1920 240 1920 180 1920C120 1920 60 1920 30 1920H0V1786.5Z" fill="url(#paint1_linear_609_43)"/>
<path opacity="0.8" d="M0 1608.5L30 1638.2C60 1667.53 120 1727.47 180 1756.8C240 1786.5 300 1786.5 360 1764.25C420 1742 480 1697.5 540 1645.55C600 1593.97 660 1534.03 720 1556.55C780 1578.53 840 1682.97 900 1719.75C960 1756.53 1020 1727.47 1080 1719.75C1140 1712.03 1200 1727.47 1260 1742C1320 1756.53 1380 1771.97 1440 1734.55C1500 1697.5 1560 1608.5 1620 1556.55C1680 1504.97 1740 1489.53 1800 1526.95C1860 1564 1920 1653 1980 1690.05C2040 1727.47 2100 1712.03 2160 1734.55C2220 1756.53 2280 1816.47 2340 1845.8C2400 1875.5 2460 1875.5 2520 1816.2C2580 1756.53 2640 1638.47 2700 1630.75C2760 1623.03 2820 1727.47 2880 1734.55C2940 1742 3000 1653 3060 1638.2C3120 1623.03 3180 1682.97 3240 1682.7C3300 1682.97 3360 1623.03 3420 1645.55C3480 1667.53 3540 1771.97 3600 1779.05C3660 1786.5 3720 1697.5 3780 1697.5C3840 1697.5 3900 1786.5 3960 1779.05C4020 1771.97 4080 1667.53 4140 1653C4200 1638.47 4260 1712.03 4290 1749.45L4320 1786.5V1920H4290C4260 1920 4200 1920 4140 1920C4080 1920 4020 1920 3960 1920C3900 1920 3840 1920 3780 1920C3720 1920 3660 1920 3600 1920C3540 1920 3480 1920 3420 1920C3360 1920 3300 1920 3240 1920C3180 1920 3120 1920 3060 1920C3000 1920 2940 1920 2880 1920C2820 1920 2760 1920 2700 1920C2640 1920 2580 1920 2520 1920C2460 1920 2400 1920 2340 1920C2280 1920 2220 1920 2160 1920C2100 1920 2040 1920 1980 1920C1920 1920 1860 1920 1800 1920C1740 1920 1680 1920 1620 1920C1560 1920 1500 1920 1440 1920C1380 1920 1320 1920 1260 1920C1200 1920 1140 1920 1080 1920C1020 1920 960 1920 900 1920C840 1920 780 1920 720 1920C660 1920 600 1920 540 1920C480 1920 420 1920 360 1920C300 1920 240 1920 180 1920C120 1920 60 1920 30 1920H0V1608.5Z" fill="url(#paint2_linear_609_43)"/>
<path opacity="0.7" d="M0 1653L30 1630.75C60 1608.5 120 1564 180 1549.2C240 1534.03 300 1549.47 360 1608.5C420 1667.53 480 1771.97 540 1808.75C600 1845.53 660 1816.47 720 1793.95C780 1771.97 840 1756.53 900 1712.3C960 1667.53 1020 1593.97 1080 1564C1140 1534.03 1200 1549.47 1260 1601.05C1320 1653 1380 1742 1440 1742C1500 1742 1560 1653 1620 1630.75C1680 1608.5 1740 1653 1800 1682.7C1860 1712.03 1920 1727.47 1980 1704.95C2040 1682.97 2100 1623.03 2160 1638.2C2220 1653 2280 1742 2340 1756.8C2400 1771.97 2460 1712.03 2520 1653C2580 1593.97 2640 1534.03 2700 1504.7C2760 1475 2820 1475 2880 1541.75C2940 1608.5 3000 1742 3060 1756.8C3120 1771.97 3180 1667.53 3240 1667.8C3300 1667.53 3360 1771.97 3420 1756.8C3480 1742 3540 1608.5 3600 1564C3660 1519.5 3720 1564 3780 1623.3C3840 1682.97 3900 1756.53 3960 1749.45C4020 1742 4080 1653 4140 1615.95C4200 1578.53 4260 1593.97 4290 1601.05L4320 1608.5V1920H4290C4260 1920 4200 1920 4140 1920C4080 1920 4020 1920 3960 1920C3900 1920 3840 1920 3780 1920C3720 1920 3660 1920 3600 1920C3540 1920 3480 1920 3420 1920C3360 1920 3300 1920 3240 1920C3180 1920 3120 1920 3060 1920C3000 1920 2940 1920 2880 1920C2820 1920 2760 1920 2700 1920C2640 1920 2580 1920 2520 1920C2460 1920 2400 1920 2340 1920C2280 1920 2220 1920 2160 1920C2100 1920 2040 1920 1980 1920C1920 1920 1860 1920 1800 1920C1740 1920 1680 1920 1620 1920C1560 1920 1500 1920 1440 1920C1380 1920 1320 1920 1260 1920C1200 1920 1140 1920 1080 1920C1020 1920 960 1920 900 1920C840 1920 780 1920 720 1920C660 1920 600 1920 540 1920C480 1920 420 1920 360 1920C300 1920 240 1920 180 1920C120 1920 60 1920 30 1920H0V1653Z" fill="url(#paint3_linear_609_43)"/>
</g>
<g clip-path="url(#clip1_609_43)">
<path d="M1080 76.8L1044 115.2C1008 153.6 936 230.4 864 249.6C792 268.8 720 230.4 648 192C576 153.6 504 115.2 432 115.2C360 115.2 288 153.6 216 160.026C144 166.139 72 141.061 0 153.6C-72 166.139 -144 217.861 -216 262.374C-288 307.2 -360 345.6 -432 326.4C-504 307.2 -576 230.4 -648 185.574C-720 141.061 -792 127.739 -864 166.374C-936 204.539 -1008 294.661 -1080 319.974C-1152 345.6 -1224 307.2 -1296 256.026C-1368 204.539 -1440 141.061 -1512 160.026C-1584 179.461 -1656 281.339 -1728 294.426C-1800 307.2 -1872 230.4 -1944 204.774C-2016 179.461 -2088 204.539 -2160 198.426C-2232 192 -2304 153.6 -2376 179.226C-2448 204.539 -2520 294.661 -2592 332.826C-2664 371.461 -2736 358.139 -2808 313.626C-2880 268.8 -2952 192 -3024 153.6C-3096 115.2 -3168 115.2 -3240 115.2C-3312 115.2 -3384 115.2 -3456 134.4C-3528 153.6 -3600 192 -3672 204.774C-3744 217.861 -3816 204.539 -3888 223.974C-3960 242.939 -4032 294.661 -4068 319.974L-4104 345.6V-3.30007e-05H-4068C-4032 -3.30007e-05 -3960 -3.30007e-05 -3888 -3.30007e-05C-3816 -3.30007e-05 -3744 -3.30007e-05 -3672 -3.30007e-05C-3600 -3.30007e-05 -3528 -3.30007e-05 -3456 -3.30007e-05C-3384 -3.30007e-05 -3312 -3.30007e-05 -3240 -3.30007e-05C-3168 -3.30007e-05 -3096 -3.30007e-05 -3024 -3.30007e-05C-2952 -3.30007e-05 -2880 -3.30007e-05 -2808 -3.30007e-05C-2736 -3.30007e-05 -2664 -3.30007e-05 -2592 -3.30007e-05C-2520 -3.30007e-05 -2448 -3.30007e-05 -2376 -3.30007e-05C-2304 -3.30007e-05 -2232 -3.30007e-05 -2160 -3.30007e-05C-2088 -3.30007e-05 -2016 -3.30007e-05 -1944 -3.30007e-05C-1872 -3.30007e-05 -1800 -3.30007e-05 -1728 -3.30007e-05C-1656 -3.30007e-05 -1584 -3.30007e-05 -1512 -3.30007e-05C-1440 -3.30007e-05 -1368 -3.30007e-05 -1296 -3.30007e-05C-1224 -3.30007e-05 -1152 -3.30007e-05 -1080 -3.30007e-05C-1008 -3.30007e-05 -936 -3.30007e-05 -864 -3.30007e-05C-792 -3.30007e-05 -720 -3.30007e-05 -648 -3.30007e-05C-576 -3.30007e-05 -504 -3.30007e-05 -432 -3.30007e-05C-360 -3.30007e-05 -288 -3.30007e-05 -216 -3.30007e-05C-144 -3.30007e-05 -72 -3.30007e-05 0 -3.30007e-05C72 -3.30007e-05 144 -3.30007e-05 216 -3.30007e-05C288 -3.30007e-05 360 -3.30007e-05 432 -3.30007e-05C504 -3.30007e-05 576 -3.30007e-05 648 -3.30007e-05C720 -3.30007e-05 792 -3.30007e-05 864 -3.30007e-05C936 -3.30007e-05 1008 -3.30007e-05 1044 -3.30007e-05H1080V76.8Z" fill="url(#paint4_linear_609_43)"/>
<path opacity="0.9" d="M1080 384H1044C1008 384 936 384 864 326.4C792 268.8 720 153.6 648 134.4C576 115.2 504 192 432 236.826C360 281.339 288 294.661 216 307.2C144 319.739 72 333.061 0 332.826C-72 333.061 -144 319.739 -216 313.626C-288 307.2 -360 307.2 -432 300.774C-504 294.661 -576 281.339 -648 236.826C-720 192 -792 115.2 -864 121.626C-936 127.739 -1008 217.861 -1080 262.374C-1152 307.2 -1224 307.2 -1296 294.426C-1368 281.339 -1440 256.261 -1512 236.826C-1584 217.861 -1656 204.539 -1728 211.2C-1800 217.861 -1872 242.939 -1944 243.174C-2016 242.939 -2088 217.861 -2160 236.826C-2232 256.261 -2304 319.739 -2376 352.026C-2448 384 -2520 384 -2592 384C-2664 384 -2736 384 -2808 358.374C-2880 333.061 -2952 281.339 -3024 268.8C-3096 256.261 -3168 281.339 -3240 275.226C-3312 268.8 -3384 230.4 -3456 217.626C-3528 204.539 -3600 217.861 -3672 243.174C-3744 268.8 -3816 307.2 -3888 288C-3960 268.8 -4032 192 -4068 153.6L-4104 115.2V2.02656e-06H-4068C-4032 2.02656e-06 -3960 2.02656e-06 -3888 2.02656e-06C-3816 2.02656e-06 -3744 2.02656e-06 -3672 2.02656e-06C-3600 2.02656e-06 -3528 2.02656e-06 -3456 2.02656e-06C-3384 2.02656e-06 -3312 2.02656e-06 -3240 2.02656e-06C-3168 2.02656e-06 -3096 2.02656e-06 -3024 2.02656e-06C-2952 2.02656e-06 -2880 2.02656e-06 -2808 2.02656e-06C-2736 2.02656e-06 -2664 2.02656e-06 -2592 2.02656e-06C-2520 2.02656e-06 -2448 2.02656e-06 -2376 2.02656e-06C-2304 2.02656e-06 -2232 2.02656e-06 -2160 2.02656e-06C-2088 2.02656e-06 -2016 2.02656e-06 -1944 2.02656e-06C-1872 2.02656e-06 -1800 2.02656e-06 -1728 2.02656e-06C-1656 2.02656e-06 -1584 2.02656e-06 -1512 2.02656e-06C-1440 2.02656e-06 -1368 2.02656e-06 -1296 2.02656e-06C-1224 2.02656e-06 -1152 2.02656e-06 -1080 2.02656e-06C-1008 2.02656e-06 -936 2.02656e-06 -864 2.02656e-06C-792 2.02656e-06 -720 2.02656e-06 -648 2.02656e-06C-576 2.02656e-06 -504 2.02656e-06 -432 2.02656e-06C-360 2.02656e-06 -288 2.02656e-06 -216 2.02656e-06C-144 2.02656e-06 -72 2.02656e-06 0 2.02656e-06C72 2.02656e-06 144 2.02656e-06 216 2.02656e-06C288 2.02656e-06 360 2.02656e-06 432 2.02656e-06C504 2.02656e-06 576 2.02656e-06 648 2.02656e-06C720 2.02656e-06 792 2.02656e-06 864 2.02656e-06C936 2.02656e-06 1008 2.02656e-06 1044 2.02656e-06H1080V384Z" fill="url(#paint5_linear_609_43)"/>
<path opacity="0.8" d="M1080 345.6L1044 319.974C1008 294.661 936 242.939 864 192C792 141.061 720 89.3388 648 70.3739C576 50.9388 504 64.2613 432 102.426C360 141.061 288 204.539 216 217.626C144 230.4 72 192 0 192C-72 192 -144 230.4 -216 256.026C-288 281.339 -360 294.661 -432 313.626C-504 333.061 -576 358.139 -648 339.174C-720 319.739 -792 256.261 -864 204.774C-936 153.6 -1008 115.2 -1080 108.774C-1152 102.661 -1224 127.739 -1296 121.626C-1368 115.2 -1440 76.8 -1512 96C-1584 115.2 -1656 192 -1728 192C-1800 192 -1872 115.2 -1944 115.2C-2016 115.2 -2088 192 -2160 223.974C-2232 256.261 -2304 242.939 -2376 230.4C-2448 217.861 -2520 204.539 -2592 192C-2664 179.461 -2736 166.139 -2808 166.374C-2880 166.139 -2952 179.461 -3024 179.226C-3096 179.461 -3168 166.139 -3240 172.8C-3312 179.461 -3384 204.539 -3456 198.426C-3528 192 -3600 153.6 -3672 153.6C-3744 153.6 -3816 192 -3888 217.626C-3960 242.939 -4032 256.261 -4068 262.374L-4104 268.8V4.16853e-05H-4068C-4032 4.16853e-05 -3960 4.16853e-05 -3888 4.16853e-05C-3816 4.16853e-05 -3744 4.16853e-05 -3672 4.16853e-05C-3600 4.16853e-05 -3528 4.16853e-05 -3456 4.16853e-05C-3384 4.16853e-05 -3312 4.16853e-05 -3240 4.16853e-05C-3168 4.16853e-05 -3096 4.16853e-05 -3024 4.16853e-05C-2952 4.16853e-05 -2880 4.16853e-05 -2808 4.16853e-05C-2736 4.16853e-05 -2664 4.16853e-05 -2592 4.16853e-05C-2520 4.16853e-05 -2448 4.16853e-05 -2376 4.16853e-05C-2304 4.16853e-05 -2232 4.16853e-05 -2160 4.16853e-05C-2088 4.16853e-05 -2016 4.16853e-05 -1944 4.16853e-05C-1872 4.16853e-05 -1800 4.16853e-05 -1728 4.16853e-05C-1656 4.16853e-05 -1584 4.16853e-05 -1512 4.16853e-05C-1440 4.16853e-05 -1368 4.16853e-05 -1296 4.16853e-05C-1224 4.16853e-05 -1152 4.16853e-05 -1080 4.16853e-05C-1008 4.16853e-05 -936 4.16853e-05 -864 4.16853e-05C-792 4.16853e-05 -720 4.16853e-05 -648 4.16853e-05C-576 4.16853e-05 -504 4.16853e-05 -432 4.16853e-05C-360 4.16853e-05 -288 4.16853e-05 -216 4.16853e-05C-144 4.16853e-05 -72 4.16853e-05 0 4.16853e-05C72 4.16853e-05 144 4.16853e-05 216 4.16853e-05C288 4.16853e-05 360 4.16853e-05 432 4.16853e-05C504 4.16853e-05 576 4.16853e-05 648 4.16853e-05C720 4.16853e-05 792 4.16853e-05 864 4.16853e-05C936 4.16853e-05 1008 4.16853e-05 1044 4.16853e-05H1080V345.6Z" fill="url(#paint6_linear_609_43)"/>
<path opacity="0.7" d="M1080 153.6H1044C1008 153.6 936 153.6 864 147.174C792 141.061 720 127.739 648 160.026C576 192 504 268.8 432 281.574C360 294.661 288 242.939 216 192C144 141.061 72 89.3389 0 115.2C-72 141.061 -144 242.939 -216 281.574C-288 319.739 -360 294.661 -432 268.8C-504 242.939 -576 217.861 -648 230.4C-720 242.939 -792 294.661 -864 294.426C-936 294.661 -1008 242.939 -1080 192C-1152 141.061 -1224 89.3389 -1296 89.574C-1368 89.3389 -1440 141.061 -1512 172.8C-1584 204.539 -1656 217.861 -1728 230.4C-1800 242.939 -1872 256.261 -1944 249.6C-2016 242.939 -2088 217.861 -2160 204.774C-2232 192 -2304 192 -2376 211.2C-2448 230.4 -2520 268.8 -2592 262.374C-2664 256.261 -2736 204.539 -2808 198.426C-2880 192 -2952 230.4 -3024 256.026C-3096 281.339 -3168 294.661 -3240 256.026C-3312 217.861 -3384 127.739 -3456 134.4C-3528 141.061 -3600 242.939 -3672 243.174C-3744 242.939 -3816 141.061 -3888 115.2C-3960 89.3389 -4032 141.061 -4068 166.374L-4104 192V9.4263e-05H-4068C-4032 9.4263e-05 -3960 9.4263e-05 -3888 9.4263e-05C-3816 9.4263e-05 -3744 9.4263e-05 -3672 9.4263e-05C-3600 9.4263e-05 -3528 9.4263e-05 -3456 9.4263e-05C-3384 9.4263e-05 -3312 9.4263e-05 -3240 9.4263e-05C-3168 9.4263e-05 -3096 9.4263e-05 -3024 9.4263e-05C-2952 9.4263e-05 -2880 9.4263e-05 -2808 9.4263e-05C-2736 9.4263e-05 -2664 9.4263e-05 -2592 9.4263e-05C-2520 9.4263e-05 -2448 9.4263e-05 -2376 9.4263e-05C-2304 9.4263e-05 -2232 9.4263e-05 -2160 9.4263e-05C-2088 9.4263e-05 -2016 9.4263e-05 -1944 9.4263e-05C-1872 9.4263e-05 -1800 9.4263e-05 -1728 9.4263e-05C-1656 9.4263e-05 -1584 9.4263e-05 -1512 9.4263e-05C-1440 9.4263e-05 -1368 9.4263e-05 -1296 9.4263e-05C-1224 9.4263e-05 -1152 9.4263e-05 -1080 9.4263e-05C-1008 9.4263e-05 -936 9.4263e-05 -864 9.4263e-05C-792 9.4263e-05 -720 9.4263e-05 -648 9.4263e-05C-576 9.4263e-05 -504 9.4263e-05 -432 9.4263e-05C-360 9.4263e-05 -288 9.4263e-05 -216 9.4263e-05C-144 9.4263e-05 -72 9.4263e-05 0 9.4263e-05C72 9.4263e-05 144 9.4263e-05 216 9.4263e-05C288 9.4263e-05 360 9.4263e-05 432 9.4263e-05C504 9.4263e-05 576 9.4263e-05 648 9.4263e-05C720 9.4263e-05 792 9.4263e-05 864 9.4263e-05C936 9.4263e-05 1008 9.4263e-05 1044 9.4263e-05H1080V153.6Z" fill="url(#paint7_linear_609_43)"/>
</g>
<defs>
<linearGradient id="paint0_linear_609_43" x1="0" y1="1920" x2="0" y2="1475" gradientUnits="userSpaceOnUse">
<stop stop-color="#AF3D59"/>
<stop offset="1" stop-color="#9A364E"/>
</linearGradient>
<linearGradient id="paint1_linear_609_43" x1="0" y1="1920" x2="0" y2="1502.84" gradientUnits="userSpaceOnUse">
<stop stop-color="#E17A47"/>
<stop offset="1" stop-color="#C66B3E"/>
</linearGradient>
<linearGradient id="paint2_linear_609_43" x1="0" y1="1920" x2="0" y2="1506.27" gradientUnits="userSpaceOnUse">
<stop stop-color="#EFC958"/>
<stop offset="1" stop-color="#D2B14D"/>
</linearGradient>
<linearGradient id="paint3_linear_609_43" x1="0" y1="1920" x2="0" y2="1485.69" gradientUnits="userSpaceOnUse">
<stop stop-color="#4AB19D"/>
<stop offset="1" stop-color="#419C8A"/>
</linearGradient>
<linearGradient id="paint4_linear_609_43" x1="1080" y1="-3.05176e-05" x2="1080" y2="355.58" gradientUnits="userSpaceOnUse">
<stop stop-color="#AF3D59"/>
<stop offset="1" stop-color="#9A364E"/>
</linearGradient>
<linearGradient id="paint5_linear_609_43" x1="1080" y1="0" x2="1080" y2="384" gradientUnits="userSpaceOnUse">
<stop stop-color="#E17A47"/>
<stop offset="1" stop-color="#C66B3E"/>
</linearGradient>
<linearGradient id="paint6_linear_609_43" x1="1080" y1="3.05176e-05" x2="1080" y2="345.916" gradientUnits="userSpaceOnUse">
<stop stop-color="#EFC958"/>
<stop offset="1" stop-color="#D2B14D"/>
</linearGradient>
<linearGradient id="paint7_linear_609_43" x1="1080" y1="9.15527e-05" x2="1080" y2="301.127" gradientUnits="userSpaceOnUse">
<stop stop-color="#4AB19D"/>
<stop offset="1" stop-color="#419C8A"/>
</linearGradient>
<clipPath id="clip0_609_43">
<rect width="1080" height="445" fill="white" transform="translate(0 1475)"/>
</clipPath>
<clipPath id="clip1_609_43">
<rect width="1080" height="384" fill="white" transform="matrix(-1 0 0 -1 1080 384)"/>
</clipPath>
</defs>
</svg>
